<svg width="189" height="60" viewBox="0 0 189 60" fill="none" xmlns="http://www.w3.org/2000/svg">
<mask id="mask0" mask-type="alpha" maskUnits="userSpaceOnUse" x="0" y="0" width="62" height="60">
<path d="M61.2284 30C61.2284 46.2791 47.6474 59.5 30.8642 59.5C14.081 59.5 0.5 46.2791 0.5 30C0.5 13.7209 14.081 0.5 30.8642 0.5C47.6474 0.5 61.2284 13.7209 61.2284 30Z" fill="#F5F5F5" stroke="#918D8D"/>
</mask>
<g mask="url(#mask0)">
<path d="M61.2284 30C61.2284 46.2791 47.6474 59.5 30.8642 59.5C14.081 59.5 0.5 46.2791 0.5 30C0.5 13.7209 14.081 0.5 30.8642 0.5C47.6474 0.5 61.2284 13.7209 61.2284 30Z" fill="#F5F5F5" stroke="white"/>
<path d="M30.3498 29.5C30.3498 29.5 3.60082 15.5 30.3498 0H5.14403L-9.25926 25.5V57L30.3498 60C54.0123 39 30.3498 29.5 30.3498 29.5Z" fill="black" stroke="white"/>
<ellipse cx="22.1193" cy="43.5" rx="3.60082" ry="3.5" fill="#C4C4C4"/>
<ellipse cx="37.5514" cy="12.5" rx="3.60082" ry="3.5" fill="black"/>
<path d="M61.2284 30C61.2284 46.2791 47.6474 59.5 30.8642 59.5C14.081 59.5 0.5 46.2791 0.5 30C0.5 13.7209 14.081 0.5 30.8642 0.5C47.6474 0.5 61.2284 13.7209 61.2284 30Z" stroke="white"/>
</g>
<path d="M94.3477 23L91.3711 24.3945L86.332 31.7305L86.6133 35.9844L88.9453 37.6836L80.9766 38.2109L83.6133 36.4648L84.5039 31.6836L79.9219 24.4883L77.0859 23.4805L85.125 21.5586L82.9219 23.5508L85.5586 30.3711L88.6992 23.7383L86.7656 21.7227L94.3477 23ZM98.0859 25.2617L98.4258 35.8672L100.852 37.5664L92.543 38.293L95.4023 35.9141L96.1172 24.5586L93.668 22.6367L100.805 23.0703L98.0859 25.2617ZM119.297 22.332L115.969 23.293L114.258 38.2344L106.676 26.5508L105.48 35.6211L108.738 37.3555L101.039 37.9297L104.109 35.6211L104.332 23.8906L100.828 22.6602L108.48 21.3945L113.039 33.1719L114.434 23.5977L111.867 21.1719L119.297 22.332ZM119.074 30.7812L119.191 29.0234L126.891 28.3789V31.2852L119.074 30.7812ZM143.988 23L141.012 24.3945L135.973 31.7305L136.254 35.9844L138.586 37.6836L130.617 38.2109L133.254 36.4648L134.145 31.6836L129.562 24.4883L126.727 23.4805L134.766 21.5586L132.562 23.5508L135.199 30.3711L138.34 23.7383L136.406 21.7227L143.988 23ZM151.922 21.418L155.449 35.5742L158.238 35.9844L151.641 38.7969L153.891 35.9375L152.578 32.668L146.531 32.8672L145.301 36.3477L147.562 39.3242L140.555 36.5586L144 36.2188L144.984 32.9141H144.41L143.426 31.6602L145.418 31.4492L147.539 24.3711L145.137 23.1172L151.922 21.418ZM147.082 31.2617L151.758 30.7227L149.355 24.7812L147.082 31.2617ZM175.383 22.332L172.055 23.293L170.344 38.2344L162.762 26.5508L161.566 35.6211L164.824 37.3555L157.125 37.9297L160.195 35.6211L160.418 23.8906L156.914 22.6602L164.566 21.3945L169.125 33.1719L170.52 23.5977L167.953 21.1719L175.383 22.332ZM188.977 30.1953L187.055 32.1172L186.645 38.5508L185.59 36.5586C185.004 37.168 184.328 37.6367 183.562 37.9648C182.805 38.293 182.035 38.457 181.254 38.457C180.762 38.457 180.262 38.3867 179.754 38.2461C179.246 38.1133 178.75 37.9062 178.266 37.625C177.781 37.3359 177.324 36.9727 176.895 36.5352C176.473 36.0977 176.102 35.582 175.781 34.9883C175.469 34.3867 175.219 33.7031 175.031 32.9375C174.844 32.1719 174.75 31.3164 174.75 30.3711C174.75 29.2539 174.879 28.2695 175.137 27.418C175.395 26.5664 175.734 25.8281 176.156 25.2031C176.578 24.5781 177.055 24.0586 177.586 23.6445C178.117 23.2305 178.656 22.8984 179.203 22.6484C179.75 22.3984 180.281 22.2227 180.797 22.1211C181.32 22.0195 181.773 21.9688 182.156 21.9688C182.562 21.9922 182.977 22.0586 183.398 22.168C183.75 22.2617 184.133 22.4102 184.547 22.6133C184.961 22.8164 185.348 23.0977 185.707 23.457L188.379 21.4414L184.875 27.7578V24.4648C184.602 24.1992 184.305 23.9961 183.984 23.8555C183.672 23.7148 183.379 23.6133 183.105 23.5508C182.832 23.4805 182.594 23.4414 182.391 23.4336C182.195 23.418 182.078 23.4102 182.039 23.4102C181.469 23.4336 180.926 23.6133 180.41 23.9492C179.895 24.2852 179.438 24.7539 179.039 25.3555C178.648 25.9492 178.336 26.6641 178.102 27.5C177.867 28.3281 177.75 29.2539 177.75 30.2773C177.75 31.3086 177.867 32.2383 178.102 33.0664C178.336 33.8945 178.656 34.6016 179.062 35.1875C179.477 35.7656 179.961 36.2109 180.516 36.5234C181.07 36.8359 181.668 36.9922 182.309 36.9922C182.363 36.9922 182.477 36.9883 182.648 36.9805C182.82 36.9648 183.027 36.9141 183.27 36.8281C183.512 36.7422 183.773 36.6055 184.055 36.418C184.336 36.2227 184.617 35.9492 184.898 35.5977L184.488 32.5742L181.629 31.0859L188.977 30.1953Z" fill="#F5F5F5"/>
</svg>
