<svg width="303" height="295" viewBox="0 0 303 295" fill="none" xmlns="http://www.w3.org/2000/svg">
<mask id="mask0" mask-type="alpha" maskUnits="userSpaceOnUse" x="0" y="0" width="303" height="295">
<path d="M302.5 147.258C302.5 228.297 234.908 294.016 151.5 294.016C68.0915 294.016 0.5 228.297 0.5 147.258C0.5 66.2191 68.0915 0.5 151.5 0.5C234.908 0.5 302.5 66.2191 302.5 147.258Z" fill="#F5F5F5" stroke="black"/>
</mask>
<g mask="url(#mask0)">
<path d="M302.5 147.258C302.5 228.297 234.908 294.016 151.5 294.016C68.0915 294.016 0.5 228.297 0.5 147.258C0.5 66.2191 68.0915 0.5 151.5 0.5C234.908 0.5 302.5 66.2191 302.5 147.258Z" fill="#F5F5F5" stroke="black"/>
<path d="M148.975 144.804C148.975 144.804 17.6749 76.0833 148.975 0H25.2499L-45.4501 125.169V279.79L148.975 294.516C265.125 191.435 148.975 144.804 148.975 144.804Z" fill="black" stroke="black"/>
<ellipse cx="108.575" cy="213.524" rx="17.675" ry="17.1801" fill="#C4C4C4"/>
<ellipse cx="184.325" cy="61.3575" rx="17.675" ry="17.1801" fill="black"/>
<path d="M300.5 147.26C300.5 227.142 233.858 292.02 151.5 292.02C69.1422 292.02 2.5 227.142 2.5 147.26C2.5 67.3777 69.1422 2.5 151.5 2.5C233.858 2.5 300.5 67.3777 300.5 147.26Z" stroke="black" stroke-width="5"/>
</g>
</svg>
