<svg width="303" height="295" viewBox="0 0 303 295" fill="none" xmlns="http://www.w3.org/2000/svg">
<mask id="mask0" mask-type="alpha" maskUnits="userSpaceOnUse" x="0" y="0" width="303" height="295">
<ellipse rx="151.5" ry="147.258" transform="matrix(-1 0 0 1 151.5 147.258)" fill="#F5F5F5"/>
</mask>
<g mask="url(#mask0)">
<path d="M0 147.258C0 228.586 67.8289 294.516 151.5 294.516C235.171 294.516 303 228.586 303 147.258C303 65.9297 235.171 0 151.5 0C67.8289 0 0 65.9297 0 147.258Z" fill="#F5F5F5"/>
<path d="M0 147.258C0 228.586 67.8289 294.516 151.5 294.516C235.171 294.516 303 228.586 303 147.258C303 65.9297 235.171 0 151.5 0C67.8289 0 0 65.9297 0 147.258Z" stroke="white"/>
<path d="M153.612 145.467C153.612 145.467 284.887 74.5333 153.612 -4H277.314L348 125.2V284.8L153.612 300C37.4846 193.6 153.612 145.467 153.612 145.467Z" fill="black" stroke="white" stroke-width="5"/>
<ellipse rx="17.675" ry="17.1801" transform="matrix(-1 0 0 1 194.425 213.524)" fill="white"/>
<ellipse rx="17.675" ry="17.1801" transform="matrix(-1 0 0 1 118.675 61.3576)" fill="black"/>
<path d="M2.5 147.26C2.5 227.142 69.1422 292.02 151.5 292.02C233.858 292.02 300.5 227.142 300.5 147.26C300.5 67.3777 233.858 2.5 151.5 2.5C69.1422 2.5 2.5 67.3777 2.5 147.26Z" stroke="white" stroke-width="5"/>
</g>
</svg>
